<?xml version="1.0" encoding="UTF-8"?>
<!DOCTYPE svg PUBLIC "-//W3C//DTD SVG 1.1//EN" "http://www.w3.org/Graphics/SVG/1.1/DTD/svg11.dtd">
<!-- Creator: CorelDRAW 2017 -->
<svg xmlns="http://www.w3.org/2000/svg" xml:space="preserve" width="220px" height="50px" version="1.1" style="shape-rendering:geometricPrecision; text-rendering:geometricPrecision; image-rendering:optimizeQuality; fill-rule:evenodd; clip-rule:evenodd"
viewBox="0 0 229.58 52.29"
 xmlns:xlink="http://www.w3.org/1999/xlink">
 <defs>
  <style type="text/css">
   <![CDATA[
    .fil3 {fill:#FEFEFE}
    .fil2 {fill:#F58634}
    .fil1 {fill:#457E9A}
    .fil0 {fill:#457E9A;fill-rule:nonzero}
   ]]>
  </style>
 </defs>
 <g id="Camada_x0020_1">
  <metadata id="CorelCorpID_0Corel-Layer"/>
  <path class="fil0" d="M60.08 9.22l-0.77 0 -11.24 28.95c-1.1,2.87 -2.52,3.87 -3.76,4.15l0 0.95c0.96,-0.09 1.96,-0.14 3.57,-0.14 1.68,0 3.69,0.05 5.5,0.14l0 -0.95c-2.73,-0.07 -4.15,-0.79 -4.15,-2.87 0,-0.98 0.31,-2.26 0.96,-3.92l1.96 -5.06 11.52 0 2.93 7.83c0.38,0.96 0.57,1.68 0.57,2.25 0,1.33 -1.08,1.68 -3.38,1.77l0 0.95c1.35,-0.09 3.63,-0.14 6.1,-0.14 1.82,0 3.83,0.05 5.14,0.14l0 -0.95c-1.01,-0.04 -2.36,-0.63 -3.32,-3.06l-11.63 -30.04zm3.24 20.3l-10.82 0 5.48 -14.26 5.34 14.26zm25.31 -20.06c-1.5,0.09 -3.88,0.14 -6.06,0.14 -2.5,0 -4.79,-0.05 -6.12,-0.14l0 0.95c3.25,0.14 3.88,0.63 3.88,4.1l0 21.84c0,6.6 -0.17,8.93 -0.82,10.93 -0.86,2.55 -2.96,4.06 -5.74,4.06 -0.81,0 -2.42,-0.13 -3.05,-0.76 1.19,-0.24 2.01,-1.05 2.01,-2.43 0,-1.63 -1.15,-2.59 -2.64,-2.59 -1.47,0 -2.52,1.06 -2.52,2.54 0,1.33 0.72,2.48 2.28,3.29 0.87,0.44 2.25,0.86 4.01,0.86 5.47,0 9.03,-3.37 10.08,-7.78 0.77,-3.2 0.81,-8.5 0.81,-12.46l0 -17.5c0,-3.47 0.63,-3.96 3.88,-4.1l0 -0.95zm16.69 -0.24l-0.77 0 -11.24 28.95c-1.1,2.87 -2.52,3.87 -3.76,4.15l0 0.95c0.96,-0.09 1.96,-0.14 3.57,-0.14 1.68,0 3.69,0.05 5.5,0.14l0 -0.95c-2.73,-0.07 -4.15,-0.79 -4.15,-2.87 0,-0.98 0.31,-2.26 0.96,-3.92l1.96 -5.06 11.52 0 2.93 7.83c0.38,0.96 0.57,1.68 0.57,2.25 0,1.33 -1.08,1.68 -3.38,1.77l0 0.95c1.35,-0.09 3.63,-0.14 6.1,-0.14 1.82,0 3.83,0.05 5.14,0.14l0 -0.95c-1.01,-0.04 -2.36,-0.63 -3.32,-3.06l-11.63 -30.04zm3.24 20.3l-10.82 0 5.47 -14.26 5.35 14.26zm28.27 -4.74l6.7 -9.98c1.75,-2.62 3.42,-4.11 5.39,-4.39l0 -0.95c-0.97,0.09 -2.43,0.14 -4.06,0.14 -1.68,0 -3.69,-0.05 -5.51,-0.14l0 0.95c2.38,0.05 3.71,0.51 3.71,1.91 0,1 -0.66,2.48 -2.08,4.59l-4.68 7.03 -7.44 -11.39c-0.26,-0.41 -0.43,-0.76 -0.43,-1.04 0,-0.7 0.92,-1.05 3.2,-1.05l0 -1c-1.77,0.09 -4.15,0.19 -6.74,0.19 -1.63,0 -3.29,-0.15 -4.11,-0.19l0 1c1.43,0.09 2.01,0.53 3.2,2.38l9.36 14.34 -7.21 10.75c-1.77,2.62 -3.43,4.11 -5.39,4.39l0 0.95c0.96,-0.09 2.42,-0.14 4.06,-0.14 1.68,0 4.64,0.05 6.44,0.14l0 -0.95c-2.54,-0.07 -4.25,-0.58 -4.25,-2.29 0,-0.95 0.56,-2.33 1.82,-4.19l5.16 -7.7 8.16 12.5c0.23,0.35 0.35,0.63 0.35,0.86 0,0.63 -1.05,0.77 -3.41,0.77l0 1c1.28,-0.05 4.15,-0.19 6.74,-0.19 1.63,0 3.29,0.14 4.11,0.19l0 -1c-1.43,-0.09 -2.01,-0.53 -3.2,-2.38l-9.89 -15.11z"/>
  <path class="fil0" d="M177.96 14.69l1.1 0 0 4.4 -1.1 0 0 -0.47c-0.22,0.21 -0.43,0.35 -0.65,0.44 -0.22,0.09 -0.45,0.14 -0.71,0.14 -0.57,0 -1.06,-0.22 -1.47,-0.66 -0.42,-0.44 -0.63,-0.99 -0.63,-1.64 0,-0.68 0.2,-1.23 0.61,-1.67 0.4,-0.43 0.89,-0.65 1.46,-0.65 0.27,0 0.51,0.05 0.75,0.15 0.23,0.1 0.44,0.25 0.64,0.44l0 -0.48zm-1.16 0.9c-0.35,0 -0.63,0.12 -0.86,0.37 -0.22,0.24 -0.34,0.55 -0.34,0.92 0,0.38 0.12,0.7 0.35,0.94 0.23,0.25 0.51,0.37 0.85,0.37 0.35,0 0.64,-0.12 0.86,-0.36 0.23,-0.24 0.35,-0.56 0.35,-0.95 0,-0.38 -0.12,-0.69 -0.35,-0.93 -0.22,-0.24 -0.51,-0.36 -0.86,-0.36zm6.63 -2.6l1.1 0 0 6.1 -1.1 0 0 -0.47c-0.21,0.21 -0.43,0.35 -0.65,0.44 -0.21,0.09 -0.45,0.14 -0.7,0.14 -0.57,0 -1.07,-0.22 -1.48,-0.66 -0.42,-0.44 -0.63,-0.99 -0.63,-1.64 0,-0.68 0.21,-1.23 0.61,-1.67 0.4,-0.43 0.89,-0.65 1.46,-0.65 0.27,0 0.52,0.05 0.75,0.15 0.23,0.1 0.44,0.25 0.64,0.45l0 -2.19zm-1.16 2.6c-0.34,0 -0.63,0.12 -0.85,0.37 -0.23,0.24 -0.34,0.55 -0.34,0.92 0,0.38 0.11,0.7 0.34,0.94 0.23,0.25 0.52,0.37 0.85,0.37 0.35,0 0.64,-0.12 0.87,-0.36 0.23,-0.24 0.34,-0.56 0.34,-0.95 0,-0.38 -0.11,-0.69 -0.34,-0.93 -0.23,-0.24 -0.52,-0.36 -0.87,-0.36zm2.91 -0.9l1.13 0 1.11 2.6 1.11 -2.6 1.13 0 -1.9 4.4 -0.7 0 -1.88 -4.4zm8.37 0l1.1 0 0 4.4 -1.1 0 0 -0.47c-0.22,0.21 -0.44,0.35 -0.65,0.44 -0.22,0.09 -0.46,0.14 -0.71,0.14 -0.57,0 -1.06,-0.22 -1.48,-0.66 -0.41,-0.44 -0.62,-0.99 -0.62,-1.64 0,-0.68 0.2,-1.23 0.6,-1.67 0.41,-0.43 0.89,-0.65 1.47,-0.65 0.26,0 0.51,0.05 0.74,0.15 0.24,0.1 0.45,0.25 0.65,0.44l0 -0.48zm-1.16 0.9c-0.35,0 -0.63,0.12 -0.86,0.37 -0.22,0.24 -0.34,0.55 -0.34,0.92 0,0.38 0.12,0.7 0.35,0.94 0.23,0.25 0.51,0.37 0.85,0.37 0.35,0 0.64,-0.12 0.86,-0.36 0.23,-0.24 0.35,-0.56 0.35,-0.95 0,-0.38 -0.12,-0.69 -0.35,-0.93 -0.22,-0.24 -0.52,-0.36 -0.86,-0.36zm3.37 -0.9l1.1 0 0 0.45c0.25,-0.21 0.48,-0.35 0.69,-0.43 0.2,-0.09 0.41,-0.13 0.62,-0.13 0.44,0 0.81,0.15 1.11,0.46 0.26,0.26 0.39,0.64 0.39,1.15l0 2.9 -1.1 0 0 -1.92c0,-0.53 -0.02,-0.88 -0.07,-1.05 -0.04,-0.17 -0.13,-0.3 -0.24,-0.39 -0.12,-0.09 -0.27,-0.14 -0.44,-0.14 -0.22,0 -0.41,0.08 -0.57,0.23 -0.16,0.15 -0.27,0.35 -0.34,0.62 -0.03,0.13 -0.05,0.43 -0.05,0.89l0 1.76 -1.1 0 0 -4.4zm9.29 0.9l-0.92 0.5c-0.17,-0.18 -0.34,-0.3 -0.51,-0.37 -0.17,-0.08 -0.37,-0.11 -0.59,-0.11 -0.42,0 -0.75,0.12 -1.01,0.37 -0.25,0.24 -0.38,0.56 -0.38,0.94 0,0.37 0.12,0.68 0.37,0.91 0.24,0.24 0.57,0.36 0.97,0.36 0.49,0 0.87,-0.17 1.15,-0.51l0.87 0.6c-0.47,0.61 -1.14,0.92 -2,0.92 -0.78,0 -1.38,-0.23 -1.82,-0.69 -0.44,-0.45 -0.66,-0.99 -0.66,-1.6 0,-0.43 0.11,-0.82 0.32,-1.18 0.22,-0.35 0.51,-0.64 0.9,-0.84 0.38,-0.21 0.8,-0.31 1.28,-0.31 0.43,0 0.83,0.09 1.17,0.26 0.35,0.18 0.64,0.43 0.86,0.75zm5.4 1.61l-3.54 0c0.05,0.32 0.18,0.57 0.41,0.75 0.22,0.19 0.5,0.28 0.84,0.28 0.41,0 0.77,-0.15 1.06,-0.44l0.93 0.44c-0.23,0.33 -0.51,0.57 -0.83,0.73 -0.33,0.16 -0.71,0.24 -1.15,0.24 -0.69,0 -1.25,-0.22 -1.68,-0.65 -0.44,-0.44 -0.65,-0.98 -0.65,-1.63 0,-0.67 0.21,-1.23 0.65,-1.67 0.43,-0.45 0.97,-0.67 1.62,-0.67 0.7,0 1.26,0.22 1.69,0.66 0.44,0.45 0.66,1.03 0.66,1.75l-0.01 0.21zm-1.1 -0.86c-0.07,-0.24 -0.21,-0.44 -0.43,-0.59 -0.21,-0.15 -0.46,-0.22 -0.75,-0.22 -0.31,0 -0.57,0.08 -0.81,0.25 -0.14,0.11 -0.28,0.29 -0.4,0.56l2.39 0zm5.26 -3.35l1.1 0 0 6.1 -1.1 0 0 -0.47c-0.22,0.21 -0.43,0.35 -0.65,0.44 -0.22,0.09 -0.45,0.14 -0.71,0.14 -0.57,0 -1.06,-0.22 -1.47,-0.66 -0.42,-0.44 -0.63,-0.99 -0.63,-1.64 0,-0.68 0.2,-1.23 0.61,-1.67 0.4,-0.43 0.89,-0.65 1.46,-0.65 0.27,0 0.51,0.05 0.75,0.15 0.23,0.1 0.44,0.25 0.64,0.45l0 -2.19zm-1.16 2.6c-0.34,0 -0.63,0.12 -0.85,0.37 -0.23,0.24 -0.34,0.55 -0.34,0.92 0,0.38 0.11,0.7 0.34,0.94 0.23,0.25 0.51,0.37 0.85,0.37 0.35,0 0.64,-0.12 0.87,-0.36 0.23,-0.24 0.34,-0.56 0.34,-0.95 0,-0.38 -0.11,-0.69 -0.34,-0.93 -0.23,-0.24 -0.52,-0.36 -0.87,-0.36zm-38.62 7.53l1.11 0 0 1.62 0.65 0 0 0.95 -0.65 0 0 3.45 -1.11 0 0 -3.45 -0.56 0 0 -0.95 0.56 0 0 -1.62zm6.76 4.13l-3.54 0c0.05,0.32 0.19,0.57 0.41,0.75 0.22,0.19 0.5,0.28 0.84,0.28 0.42,0 0.77,-0.14 1.06,-0.43l0.93 0.43c-0.23,0.33 -0.51,0.58 -0.83,0.73 -0.32,0.16 -0.71,0.24 -1.15,0.24 -0.69,0 -1.25,-0.22 -1.68,-0.65 -0.43,-0.44 -0.65,-0.98 -0.65,-1.63 0,-0.67 0.22,-1.23 0.65,-1.67 0.43,-0.45 0.97,-0.67 1.63,-0.67 0.69,0 1.25,0.22 1.69,0.66 0.43,0.45 0.65,1.03 0.65,1.75l-0.01 0.21zm-1.1 -0.86c-0.07,-0.24 -0.21,-0.44 -0.43,-0.59 -0.21,-0.15 -0.46,-0.22 -0.75,-0.22 -0.3,0 -0.57,0.08 -0.81,0.25 -0.14,0.11 -0.28,0.29 -0.4,0.56l2.39 0zm6.31 -0.75l-0.91 0.5c-0.18,-0.18 -0.35,-0.3 -0.52,-0.37 -0.16,-0.07 -0.36,-0.11 -0.59,-0.11 -0.41,0 -0.75,0.12 -1,0.37 -0.26,0.24 -0.38,0.56 -0.38,0.94 0,0.38 0.12,0.68 0.36,0.92 0.25,0.23 0.57,0.35 0.97,0.35 0.5,0 0.88,-0.17 1.16,-0.51l0.86 0.6c-0.47,0.61 -1.13,0.92 -1.99,0.92 -0.78,0 -1.39,-0.23 -1.82,-0.69 -0.44,-0.45 -0.66,-0.99 -0.66,-1.6 0,-0.43 0.1,-0.82 0.32,-1.18 0.21,-0.35 0.51,-0.64 0.89,-0.84 0.38,-0.2 0.81,-0.31 1.28,-0.31 0.44,0 0.83,0.09 1.18,0.26 0.35,0.18 0.63,0.43 0.85,0.75zm1.01 -2.6l1.1 0 0 2.15c0.22,-0.19 0.43,-0.33 0.65,-0.42 0.22,-0.09 0.44,-0.14 0.66,-0.14 0.44,0 0.8,0.15 1.1,0.46 0.26,0.26 0.39,0.64 0.39,1.15l0 2.9 -1.09 0 0 -1.92c0,-0.51 -0.02,-0.86 -0.07,-1.04 -0.05,-0.18 -0.13,-0.31 -0.25,-0.4 -0.12,-0.09 -0.26,-0.14 -0.43,-0.14 -0.23,0 -0.42,0.08 -0.58,0.23 -0.16,0.14 -0.27,0.35 -0.33,0.6 -0.03,0.13 -0.05,0.44 -0.05,0.91l0 1.76 -1.1 0 0 -6.1zm4.97 1.7l1.1 0 0 0.45c0.25,-0.21 0.48,-0.35 0.68,-0.43 0.2,-0.09 0.41,-0.13 0.62,-0.13 0.44,0 0.81,0.15 1.12,0.46 0.25,0.26 0.38,0.64 0.38,1.15l0 2.9 -1.09 0 0 -1.92c0,-0.53 -0.03,-0.88 -0.07,-1.05 -0.05,-0.17 -0.13,-0.3 -0.25,-0.39 -0.12,-0.09 -0.26,-0.14 -0.43,-0.14 -0.23,0 -0.42,0.08 -0.58,0.23 -0.16,0.15 -0.27,0.35 -0.33,0.62 -0.03,0.14 -0.05,0.43 -0.05,0.89l0 1.76 -1.1 0 0 -4.4zm7.04 -0.11c0.42,0 0.81,0.11 1.18,0.31 0.36,0.21 0.65,0.49 0.85,0.85 0.21,0.35 0.31,0.74 0.31,1.15 0,0.41 -0.1,0.8 -0.31,1.16 -0.2,0.36 -0.49,0.64 -0.84,0.85 -0.36,0.2 -0.75,0.3 -1.18,0.3 -0.64,0 -1.18,-0.22 -1.62,-0.67 -0.45,-0.45 -0.67,-0.99 -0.67,-1.63 0,-0.69 0.25,-1.26 0.75,-1.72 0.45,-0.4 0.96,-0.6 1.53,-0.6zm0.02 1.04c-0.34,0 -0.63,0.12 -0.86,0.36 -0.23,0.23 -0.34,0.54 -0.34,0.91 0,0.38 0.11,0.69 0.34,0.93 0.22,0.23 0.51,0.35 0.86,0.35 0.34,0 0.63,-0.12 0.86,-0.36 0.23,-0.24 0.34,-0.54 0.34,-0.92 0,-0.38 -0.11,-0.68 -0.34,-0.92 -0.22,-0.23 -0.51,-0.35 -0.86,-0.35zm3.1 -2.63l1.11 0 0 6.1 -1.11 0 0 -6.1zm4.18 1.59c0.41,0 0.8,0.11 1.17,0.31 0.37,0.21 0.65,0.49 0.86,0.85 0.2,0.35 0.31,0.74 0.31,1.15 0,0.41 -0.11,0.8 -0.31,1.16 -0.21,0.36 -0.49,0.64 -0.85,0.85 -0.36,0.2 -0.75,0.3 -1.18,0.3 -0.63,0 -1.17,-0.22 -1.62,-0.67 -0.45,-0.45 -0.67,-0.99 -0.67,-1.63 0,-0.69 0.25,-1.26 0.76,-1.72 0.44,-0.4 0.95,-0.6 1.53,-0.6zm0.01 1.04c-0.34,0 -0.63,0.12 -0.85,0.36 -0.23,0.23 -0.35,0.54 -0.35,0.91 0,0.38 0.12,0.69 0.34,0.93 0.23,0.23 0.51,0.35 0.86,0.35 0.34,0 0.63,-0.12 0.86,-0.36 0.23,-0.24 0.35,-0.54 0.35,-0.92 0,-0.38 -0.12,-0.68 -0.34,-0.92 -0.23,-0.23 -0.52,-0.35 -0.87,-0.35zm6.49 -0.93l1.09 0 0 3.77c0,0.74 -0.15,1.29 -0.45,1.64 -0.4,0.47 -1.01,0.71 -1.82,0.71 -0.43,0 -0.79,-0.06 -1.09,-0.16 -0.29,-0.11 -0.54,-0.27 -0.74,-0.48 -0.2,-0.21 -0.36,-0.46 -0.45,-0.76l1.22 0c0.11,0.12 0.25,0.21 0.42,0.28 0.17,0.06 0.37,0.09 0.6,0.09 0.3,0 0.54,-0.04 0.72,-0.14 0.19,-0.09 0.31,-0.2 0.39,-0.35 0.07,-0.14 0.11,-0.39 0.11,-0.75 -0.2,0.2 -0.4,0.34 -0.61,0.42 -0.22,0.09 -0.46,0.13 -0.73,0.13 -0.59,0 -1.1,-0.21 -1.5,-0.64 -0.41,-0.42 -0.62,-0.96 -0.62,-1.61 0,-0.7 0.22,-1.26 0.65,-1.68 0.4,-0.39 0.86,-0.58 1.41,-0.58 0.25,0 0.49,0.05 0.72,0.14 0.22,0.09 0.45,0.25 0.68,0.46l0 -0.49zm-1.16 0.93c-0.35,0 -0.64,0.12 -0.86,0.35 -0.23,0.23 -0.34,0.52 -0.34,0.87 0,0.37 0.11,0.67 0.35,0.9 0.23,0.23 0.52,0.35 0.87,0.35 0.35,0 0.63,-0.12 0.85,-0.34 0.23,-0.23 0.34,-0.53 0.34,-0.9 0,-0.36 -0.11,-0.66 -0.34,-0.89 -0.22,-0.23 -0.51,-0.34 -0.87,-0.34zm3.8 -2.74c0.2,0 0.36,0.07 0.5,0.21 0.14,0.14 0.21,0.31 0.21,0.51 0,0.2 -0.07,0.36 -0.21,0.5 -0.13,0.14 -0.3,0.21 -0.49,0.21 -0.2,0 -0.36,-0.07 -0.5,-0.21 -0.14,-0.14 -0.21,-0.31 -0.21,-0.52 0,-0.19 0.07,-0.35 0.21,-0.49 0.13,-0.14 0.3,-0.21 0.49,-0.21zm-0.55 1.81l1.1 0 0 4.4 -1.1 0 0 -4.4zm6.41 0.9l-0.92 0.5c-0.17,-0.18 -0.34,-0.3 -0.51,-0.37 -0.17,-0.07 -0.36,-0.11 -0.59,-0.11 -0.41,0 -0.75,0.12 -1,0.37 -0.26,0.24 -0.38,0.56 -0.38,0.94 0,0.38 0.12,0.68 0.36,0.92 0.25,0.23 0.57,0.35 0.97,0.35 0.49,0 0.88,-0.17 1.15,-0.51l0.87 0.6c-0.47,0.61 -1.13,0.92 -2,0.92 -0.77,0 -1.38,-0.23 -1.82,-0.69 -0.43,-0.45 -0.65,-0.99 -0.65,-1.6 0,-0.43 0.1,-0.82 0.32,-1.18 0.21,-0.35 0.51,-0.64 0.89,-0.84 0.38,-0.2 0.81,-0.31 1.28,-0.31 0.44,0 0.83,0.09 1.18,0.26 0.35,0.18 0.63,0.43 0.85,0.75zm4.26 -0.9l1.1 0 0 4.4 -1.1 0 0 -0.47c-0.22,0.21 -0.43,0.36 -0.65,0.45 -0.22,0.08 -0.45,0.13 -0.71,0.13 -0.57,0 -1.06,-0.22 -1.48,-0.66 -0.41,-0.44 -0.62,-0.99 -0.62,-1.64 0,-0.68 0.2,-1.23 0.6,-1.67 0.41,-0.43 0.89,-0.65 1.47,-0.65 0.26,0 0.51,0.05 0.74,0.15 0.24,0.1 0.45,0.25 0.65,0.44l0 -0.48zm-1.16 0.9c-0.35,0 -0.63,0.12 -0.86,0.37 -0.22,0.24 -0.34,0.55 -0.34,0.92 0,0.38 0.12,0.7 0.35,0.94 0.23,0.25 0.51,0.37 0.85,0.37 0.35,0 0.64,-0.12 0.86,-0.36 0.23,-0.24 0.35,-0.56 0.35,-0.95 0,-0.38 -0.12,-0.69 -0.35,-0.93 -0.22,-0.24 -0.51,-0.36 -0.86,-0.36zm3.26 -2.6l1.1 0 0 6.1 -1.1 0 0 -6.1zm-51.08 12.37l-0.69 0.69c-0.27,-0.28 -0.53,-0.41 -0.75,-0.41 -0.12,0 -0.22,0.02 -0.29,0.08 -0.07,0.05 -0.11,0.11 -0.11,0.19 0,0.06 0.03,0.11 0.07,0.16 0.04,0.05 0.15,0.12 0.33,0.21l0.4 0.2c0.43,0.21 0.72,0.42 0.88,0.64 0.16,0.22 0.24,0.47 0.24,0.76 0,0.39 -0.15,0.72 -0.43,0.98 -0.29,0.26 -0.68,0.39 -1.16,0.39 -0.64,0 -1.15,-0.25 -1.54,-0.75l0.68 -0.74c0.13,0.15 0.29,0.27 0.46,0.36 0.18,0.1 0.33,0.14 0.47,0.14 0.14,0 0.26,-0.03 0.35,-0.1 0.09,-0.07 0.13,-0.15 0.13,-0.24 0,-0.17 -0.16,-0.34 -0.48,-0.5l-0.37 -0.18c-0.71,-0.36 -1.07,-0.81 -1.07,-1.35 0,-0.34 0.13,-0.64 0.4,-0.89 0.27,-0.24 0.61,-0.37 1.03,-0.37 0.28,0 0.55,0.07 0.81,0.19 0.25,0.13 0.46,0.31 0.64,0.54zm3.02 -0.73c0.42,0 0.81,0.11 1.17,0.31 0.37,0.21 0.66,0.49 0.86,0.85 0.21,0.35 0.31,0.74 0.31,1.15 0,0.41 -0.1,0.8 -0.31,1.16 -0.21,0.36 -0.49,0.64 -0.85,0.85 -0.35,0.2 -0.75,0.3 -1.18,0.3 -0.63,0 -1.17,-0.22 -1.62,-0.67 -0.44,-0.45 -0.67,-0.99 -0.67,-1.63 0,-0.69 0.26,-1.26 0.76,-1.72 0.45,-0.4 0.95,-0.6 1.53,-0.6zm0.02 1.04c-0.35,0 -0.63,0.12 -0.86,0.36 -0.23,0.24 -0.34,0.54 -0.34,0.91 0,0.38 0.11,0.69 0.33,0.93 0.23,0.23 0.52,0.35 0.86,0.35 0.35,0 0.64,-0.12 0.87,-0.36 0.23,-0.24 0.34,-0.54 0.34,-0.92 0,-0.38 -0.11,-0.68 -0.34,-0.92 -0.22,-0.23 -0.51,-0.35 -0.86,-0.35zm3.1 -2.63l1.1 0 0 6.1 -1.1 0 0 -6.1zm2.1 1.7l1.12 0 0 2.12c0,0.41 0.03,0.7 0.09,0.86 0.05,0.16 0.15,0.28 0.27,0.37 0.13,0.09 0.28,0.13 0.47,0.13 0.18,0 0.34,-0.04 0.47,-0.13 0.12,-0.09 0.22,-0.21 0.28,-0.38 0.05,-0.13 0.07,-0.4 0.07,-0.82l0 -2.15 1.1 0 0 1.86c0,0.77 -0.06,1.3 -0.18,1.58 -0.15,0.35 -0.37,0.61 -0.65,0.79 -0.29,0.19 -0.66,0.28 -1.11,0.28 -0.48,0 -0.87,-0.11 -1.17,-0.32 -0.3,-0.22 -0.51,-0.52 -0.63,-0.9 -0.08,-0.27 -0.13,-0.75 -0.13,-1.46l0 -1.83zm5.11 -1.62l1.1 0 0 1.62 0.66 0 0 0.95 -0.66 0 0 3.45 -1.1 0 0 -3.45 -0.56 0 0 -0.95 0.56 0 0 -1.62zm2.79 -0.19c0.2,0 0.36,0.07 0.5,0.21 0.14,0.14 0.21,0.31 0.21,0.51 0,0.2 -0.07,0.36 -0.21,0.5 -0.13,0.14 -0.3,0.21 -0.49,0.21 -0.2,0 -0.36,-0.07 -0.5,-0.21 -0.14,-0.14 -0.21,-0.31 -0.21,-0.52 0,-0.19 0.07,-0.35 0.2,-0.49 0.14,-0.14 0.31,-0.21 0.5,-0.21zm-0.55 1.81l1.1 0 0 4.4 -1.1 0 0 -4.4zm4.17 -0.11c0.42,0 0.81,0.11 1.17,0.31 0.37,0.21 0.66,0.49 0.86,0.85 0.21,0.35 0.31,0.74 0.31,1.15 0,0.41 -0.1,0.8 -0.31,1.16 -0.21,0.36 -0.49,0.64 -0.84,0.85 -0.36,0.2 -0.75,0.3 -1.18,0.3 -0.64,0 -1.18,-0.22 -1.62,-0.67 -0.45,-0.45 -0.67,-0.99 -0.67,-1.63 0,-0.69 0.25,-1.26 0.75,-1.72 0.45,-0.4 0.96,-0.6 1.53,-0.6zm0.02 1.04c-0.35,0 -0.63,0.12 -0.86,0.36 -0.23,0.24 -0.34,0.54 -0.34,0.91 0,0.38 0.11,0.69 0.34,0.93 0.22,0.23 0.51,0.35 0.85,0.35 0.35,0 0.64,-0.12 0.87,-0.36 0.23,-0.24 0.34,-0.54 0.34,-0.92 0,-0.38 -0.11,-0.68 -0.34,-0.92 -0.22,-0.23 -0.51,-0.35 -0.86,-0.35zm3.22 -0.93l1.1 0 0 0.45c0.25,-0.21 0.48,-0.35 0.68,-0.43 0.2,-0.09 0.41,-0.13 0.63,-0.13 0.43,0 0.8,0.16 1.11,0.46 0.25,0.26 0.38,0.64 0.38,1.15l0 2.9 -1.09 0 0 -1.92c0,-0.53 -0.03,-0.87 -0.07,-1.05 -0.05,-0.17 -0.13,-0.3 -0.25,-0.39 -0.12,-0.09 -0.26,-0.14 -0.43,-0.14 -0.23,0 -0.42,0.08 -0.58,0.23 -0.16,0.15 -0.27,0.35 -0.33,0.62 -0.03,0.14 -0.05,0.43 -0.05,0.89l0 1.76 -1.1 0 0 -4.4zm7.67 0.62l-0.68 0.69c-0.28,-0.28 -0.53,-0.41 -0.76,-0.41 -0.12,0 -0.22,0.02 -0.29,0.08 -0.07,0.05 -0.1,0.11 -0.1,0.19 0,0.06 0.02,0.11 0.06,0.16 0.05,0.05 0.16,0.12 0.33,0.21l0.41 0.2c0.42,0.21 0.71,0.42 0.87,0.64 0.16,0.22 0.24,0.47 0.24,0.76 0,0.39 -0.14,0.72 -0.43,0.98 -0.29,0.26 -0.67,0.39 -1.16,0.39 -0.64,0 -1.15,-0.25 -1.53,-0.75l0.68 -0.74c0.13,0.15 0.28,0.27 0.45,0.36 0.18,0.1 0.33,0.14 0.47,0.14 0.14,0 0.26,-0.03 0.35,-0.1 0.09,-0.07 0.13,-0.15 0.13,-0.24 0,-0.17 -0.16,-0.34 -0.48,-0.5l-0.37 -0.18c-0.71,-0.36 -1.07,-0.81 -1.07,-1.35 0,-0.34 0.13,-0.64 0.4,-0.89 0.27,-0.24 0.61,-0.37 1.03,-0.37 0.29,0 0.56,0.07 0.81,0.19 0.25,0.13 0.46,0.31 0.64,0.54z"/>
  <polygon class="fil1" points="164.05,0 164.99,0 164.99,52.29 164.05,52.29 "/>
  <path class="fil0" d="M153.83 13.32l0 -3.41 -1.22 0 0 -0.69 3.26 0 0 0.69 -1.21 0 0 3.41 -0.83 0zm2.56 0l0 -4.1 1.25 0 0.73 2.8 0.73 -2.8 1.25 0 0 4.1 -0.77 0 0 -3.23 -0.81 3.23 -0.8 0 -0.81 -3.23 0 3.23 -0.77 0z"/>
  <path class="fil2" d="M17.03 43.31l8.51 -8.52 8.52 -8.51 -8.52 -8.52 -8.51 -8.51 -8.52 8.51 -8.51 8.52 8.51 8.51 8.52 8.52zm0 -33.25l5.72 10.9 5.72 10.89 -22.89 0 5.73 -10.89 5.72 -10.9z"/>
  <polygon class="fil3" points="17.03,10.06 22.75,20.96 28.47,31.85 5.58,31.85 11.31,20.96 "/>
 </g>
</svg>
